<?xml version="1.0" standalone="no"?>
<!DOCTYPE svg PUBLIC "-//W3C//DTD SVG 20010904//EN"
 "http://www.w3.org/TR/2001/REC-SVG-20010904/DTD/svg10.dtd">
<svg version="1.0" xmlns="http://www.w3.org/2000/svg"
 width="740.000000pt" height="740.000000pt" viewBox="0 0 740.000000 740.000000"
 preserveAspectRatio="xMidYMid meet">
<metadata>
Created by potrace 1.14, written by Peter Selinger 2001-2017
</metadata>
<g transform="translate(0.000000,740.000000) scale(0.100000,-0.100000)"
fill="#000000" stroke="none">
<path d="M4158 7193 c-106 -64 -138 -110 -365 -518 -116 -209 -225 -407 -243
-440 -18 -33 -51 -94 -75 -135 -23 -41 -61 -111 -85 -155 -24 -44 -66 -120
-93 -170 -69 -125 -98 -178 -147 -270 -24 -44 -53 -98 -65 -120 -25 -47 -137
-251 -171 -313 -13 -24 -50 -90 -82 -149 -31 -58 -68 -126 -83 -152 -14 -25
-47 -86 -73 -136 -57 -105 -96 -176 -176 -320 -15 -27 -43 -79 -62 -115 -49
-89 -81 -148 -186 -341 -101 -186 -114 -213 -131 -285 l-12 -50 71 -125 c40
-68 76 -127 81 -130 11 -7 80 -13 155 -13 55 -1 148 40 312 137 46 27 85 47
87 45 1 -1 -24 -73 -57 -158 -32 -85 -64 -171 -70 -190 -5 -19 -13 -39 -16
-45 -4 -5 -7 -14 -9 -20 -1 -5 -96 -289 -210 -630 -216 -643 -263 -802 -263
-895 0 -49 6 -64 52 -139 53 -84 66 -95 128 -104 19 -3 59 -11 88 -18 69 -16
118 -1 300 94 190 98 386 196 390 193 1 -2 -5 -23 -14 -47 -58 -161 -204 -593
-249 -739 -84 -275 -98 -335 -97 -431 0 -112 27 -169 110 -234 l57 -46 105 2
c101 2 107 3 163 37 63 38 161 138 173 174 4 13 10 25 13 28 4 3 38 61 76 130
105 192 113 206 190 345 40 72 84 151 98 177 15 26 46 83 70 125 42 75 89 160
147 268 15 28 43 79 62 115 131 239 211 386 248 455 23 44 49 90 56 102 7 11
27 47 45 80 17 32 44 81 59 108 15 28 46 86 70 130 24 44 64 118 90 165 26 47
66 121 90 165 87 161 191 350 200 365 5 8 22 40 38 70 47 89 92 172 117 215
12 22 39 72 60 110 21 39 55 102 76 141 21 38 45 100 55 137 15 61 15 69 0 91
-17 27 -39 66 -93 164 -19 34 -38 62 -41 63 -4 0 -15 2 -25 4 -87 16 -156 15
-206 -4 -59 -22 -286 -145 -315 -170 -18 -15 -18 -15 -11 9 4 14 40 111 80
215 40 105 82 219 93 255 11 36 82 245 157 465 146 427 257 773 279 869 8 32
13 89 13 125 -2 61 -6 72 -53 147 l-51 80 -107 24 c-105 23 -108 23 -164 6
-31 -10 -113 -47 -182 -83 -69 -36 -141 -74 -160 -84 -19 -10 -81 -41 -137
-68 l-101 -50 8 27 c4 15 24 74 45 132 53 153 166 483 170 500 2 8 13 44 24
80 102 327 124 429 111 530 -9 77 -40 131 -106 185 l-57 46 -106 -2 c-101 -3
-109 -4 -163 -36z"/>
</g>
</svg>
